# 3ds Max Wavefront OBJ Exporter v0.99 - (c)2007 guruware
# File Created: 19.11.2023 17:51:55

mtllib Frente.mtl

#
# object Frente2
#

v  -77.4341 0.5926 389.3932
v  -77.4223 0.5926 400.1199
v  -447.2559 0.5926 400.1154
v  -447.2558 0.5926 389.3888
v  -447.2559 191.9656 400.1154
v  -447.2558 191.9656 389.3888
v  447.2833 0.5926 389.3996
v  79.6964 0.5926 389.3951
v  81.4969 10.1879 389.3951
v  76.6503 36.0169 389.3951
v  62.6949 58.7306 389.3949
v  41.3140 75.5893 389.3947
v  15.0865 84.5596 389.3943
v  -79.2346 10.1879 389.3932
v  -74.3879 36.0169 389.3932
v  -60.4325 58.7306 389.3934
v  -39.0517 75.5892 389.3937
v  -12.8242 84.5596 389.3940
v  447.2833 191.9656 389.3996
v  -79.2228 10.1879 400.1198
v  -74.3762 36.0169 400.1199
v  -60.4208 58.7305 400.1201
v  -39.0399 75.5892 400.1203
v  -12.8125 84.5596 400.1207
v  81.5087 10.1878 400.1218
v  79.7082 0.5926 400.1218
v  447.2832 0.5926 400.1262
v  76.6620 36.0169 400.1217
v  62.7066 58.7305 400.1216
v  41.3258 75.5892 400.1213
v  15.0983 84.5596 400.1210
v  447.2832 191.9656 400.1262
# 32 vertices

vn 0.0000 -1.0000 -0.0000
vn -1.0000 0.0000 -0.0000
vn 0.0000 0.0000 -1.0000
vn -0.0000 0.0000 1.0000
vn 0.0000 1.0000 -0.0000
vn 1.0000 0.0000 0.0000
vn -1.0000 0.0000 0.0000
vn -0.9930 -0.1177 0.0000
vn -0.9637 -0.2669 0.0000
vn -0.9985 0.0556 0.0000
vn -0.8591 -0.5118 0.0000
vn -0.4151 -0.9098 0.0000
vn 0.4151 -0.9098 -0.0000
vn 0.8591 -0.5118 -0.0000
vn 0.9637 -0.2669 -0.0000
vn 0.9930 -0.1177 -0.0000
vn 1.0000 -0.0000 -0.0000
vn 1.0000 0.0000 -0.0000
vn 0.9985 0.0556 -0.0000
# 19 vertex normals

vt 3.0000 0.4134 0.0000
vt 0.0000 0.4134 0.0000
vt 0.0000 0.0000 0.0000
vt 3.0000 0.0000 0.0000
vt 3.0000 1.0000 0.0000
vt 0.0000 1.0000 0.0000
vt 1.2328 0.0000 0.0000
vt 1.2267 0.0501 0.0000
vt 1.2430 0.1851 0.0000
vt 1.2898 0.3038 0.0000
vt 1.3615 0.3919 0.0000
vt 1.4495 0.4388 0.0000
vt 1.7658 0.0501 0.0000
vt 1.7597 0.0000 0.0000
vt 1.7495 0.1851 0.0000
vt 1.7027 0.3038 0.0000
vt 1.6310 0.3919 0.0000
vt 1.5431 0.4388 0.0000
vt 0.0000 0.0000 1.0000
vt 1.2403 0.0000 1.0000
vt 1.2343 0.0501 1.0000
vt 1.2505 0.1851 1.0000
vt 1.2973 0.3038 1.0000
vt 1.3690 0.3919 1.0000
vt 1.4570 0.4388 1.0000
vt 1.7733 0.0501 1.0000
vt 1.7673 0.0000 1.0000
vt 3.0000 0.0000 1.0000
vt 1.7571 0.1851 1.0000
vt 1.7103 0.3038 1.0000
vt 1.6385 0.3919 1.0000
vt 1.5506 0.4388 1.0000
vt 3.0000 1.0000 1.0000
vt 0.0000 1.0000 1.0000
vt 0.0000 0.5891 0.0000
vt 3.0000 0.5891 0.0000
vt 0.0000 0.0501 0.5911
vt 3.0000 0.0501 0.5911
vt 3.0000 0.1851 0.5857
vt 0.0000 0.1851 0.5857
vt 3.0000 0.3038 0.5701
vt 0.0000 0.3038 0.5701
vt 0.0000 0.0000 0.5891
vt 3.0000 0.0000 0.5891
vt 3.0000 0.3919 0.5462
vt 0.0000 0.3919 0.5462
vt 3.0000 0.5462 0.3919
vt 0.0000 0.5462 0.3919
vt 0.0000 0.5169 0.4388
vt 3.0000 0.5168 0.4388
vt 0.0000 0.4857 0.4388
vt 3.0000 0.4856 0.4388
vt 0.0000 0.4563 0.3919
vt 3.0000 0.4563 0.3919
vt 3.0000 0.3919 0.4563
vt 0.0000 0.3919 0.4563
vt 0.0000 0.3038 0.4324
vt 3.0000 0.3038 0.4324
vt 0.0000 0.1851 0.4168
vt 3.0000 0.1851 0.4168
vt 0.0000 0.0501 0.4114
vt 3.0000 0.0501 0.4114
vt 0.0000 0.0000 0.4134
vt 3.0000 0.0000 0.4134
# 64 texture coords

o Frente2
g Frente2
usemtl Material__74
s 2
f 1/1/1 2/2/1 3/3/1 
f 3/3/1 4/4/1 1/1/1 
s 8
f 3/4/2 5/5/2 6/6/2 
f 6/6/2 4/3/2 3/4/2 
s 64
f 7/3/3 8/7/3 9/8/3 
f 7/3/3 9/8/3 10/9/3 
f 7/3/3 10/9/3 11/10/3 
f 7/3/3 11/10/3 12/11/3 
f 7/3/3 12/11/3 13/12/3 
f 14/13/3 1/14/3 4/4/3 
f 15/15/3 14/13/3 4/4/3 
f 16/16/3 15/15/3 4/4/3 
f 17/17/3 16/16/3 4/4/3 
f 18/18/3 17/17/3 4/4/3 
f 18/18/3 4/4/3 6/5/3 
f 13/12/3 18/18/3 6/5/3 
f 7/3/3 13/12/3 6/5/3 
f 7/3/3 6/5/3 19/6/3 
s 16
f 3/19/4 2/20/4 20/21/4 
f 3/19/4 20/21/4 21/22/4 
f 3/19/4 21/22/4 22/23/4 
f 3/19/4 22/23/4 23/24/4 
f 3/19/4 23/24/4 24/25/4 
f 25/26/4 26/27/4 27/28/4 
f 28/29/4 25/26/4 27/28/4 
f 29/30/4 28/29/4 27/28/4 
f 30/31/4 29/30/4 27/28/4 
f 31/32/4 30/31/4 27/28/4 
f 31/32/4 27/28/4 32/33/4 
f 24/25/4 31/32/4 32/33/4 
f 3/19/4 24/25/4 32/33/4 
f 3/19/4 32/33/4 5/34/4 
s 4
f 5/28/5 32/33/5 19/34/5 
f 19/34/5 6/19/5 5/28/5 
s 32
f 7/28/6 19/33/6 32/34/6 
f 32/34/6 27/19/6 7/28/6 
s 2
f 7/5/1 27/6/1 26/35/1 
f 26/35/1 8/36/1 7/5/1 
s 128
f 9/37/7 25/38/7 28/39/8 
f 28/39/8 10/40/8 9/37/7 
f 10/40/8 28/39/8 29/41/9 
f 29/41/9 11/42/9 10/40/8 
f 8/43/10 26/44/10 25/38/7 
f 25/38/7 9/37/7 8/43/10 
f 11/42/9 29/41/9 30/45/11 
f 30/45/11 12/46/11 11/42/9 
f 12/47/11 30/48/11 31/49/12 
f 31/49/12 13/50/12 12/47/11 
f 13/50/12 31/49/12 24/51/13 
f 24/51/13 18/52/13 13/50/12 
f 18/52/13 24/51/13 23/53/14 
f 23/53/14 17/54/14 18/52/13 
f 17/55/14 23/56/14 22/57/15 
f 22/57/15 16/58/15 17/55/14 
f 16/58/15 22/57/15 21/59/16 
f 21/59/16 15/60/16 16/58/15 
f 15/60/16 21/59/16 20/61/17 
f 20/61/17 14/62/18 15/60/16 
f 2/63/19 1/64/19 14/62/18 
f 14/62/18 20/61/17 2/63/19 
# 60 faces

