# 3ds Max Wavefront OBJ Exporter v0.99 - (c)2007 guruware
# File Created: 17.11.2023 01:55:07

mtllib Hood.mtl

#
# object Hood
#

v  19.6360 21.5824 16.4759
v  23.6044 21.4864 13.8689
v  22.0813 21.5674 13.9957
v  24.0843 21.4472 14.0618
v  18.2714 20.5476 34.7798
v  18.5311 20.6887 33.0552
v  17.5238 21.1158 33.7352
v  17.8522 21.2799 31.9020
v  20.6825 20.3461 34.9263
v  20.8940 20.5895 31.7265
v  20.5191 21.5088 17.3501
v  17.4872 21.5955 18.6554
v  17.0112 21.5958 17.9263
v  16.3792 21.5957 17.9272
v  16.7617 21.9984 19.5268
v  15.0889 20.6807 33.2354
v  15.3844 20.5528 34.6624
v  16.1206 21.1188 33.6674
v  15.7678 21.2733 32.0493
v  12.8707 20.1517 38.4588
v  15.9586 20.4582 35.7648
v  16.7935 21.0359 34.4879
v  16.8408 21.5285 31.9735
v  16.2857 22.0034 20.1642
v  15.8551 21.7834 25.0927
v  16.7454 22.0343 25.1131
v  18.4875 21.6286 16.0604
v  13.6411 21.7665 15.1996
v  14.9687 21.6837 16.5221
v  19.6698 21.6549 14.5659
v  24.6108 21.3810 15.4128
v  24.4648 21.4141 14.5662
v  24.0888 21.1881 21.1713
v  21.4398 21.2487 21.8474
v  22.9934 20.4843 31.6831
v  22.1408 20.0695 36.0043
v  19.9722 20.2141 36.3092
v  21.4491 19.9246 37.6373
v  18.8338 20.1548 37.1979
v  19.8731 19.8278 38.9069
v  20.7699 19.8771 38.3703
v  18.4875 19.8155 39.2779
v  17.6901 20.0887 37.8460
v  12.9232 19.8154 39.7214
v  8.5307 19.8140 39.7822
v  8.5307 20.1580 38.4552
v  17.7061 20.4560 35.8130
v  16.7827 20.3996 36.2166
v  18.2455 21.3220 24.7819
v  17.6793 21.7815 25.1345
v  17.2201 22.0053 20.1231
v  15.9442 21.5933 18.7056
v  15.2330 21.3243 24.7307
v  12.8220 21.3179 24.8178
v  12.7087 20.6859 33.6098
v  8.5307 20.6949 33.7767
v  8.5307 21.3076 24.9582
v  8.5307 21.5592 18.2406
v  14.1544 21.5789 18.0718
v  8.5307 21.6666 16.6861
v  12.9071 19.6792 39.8423
v  8.5307 19.6636 39.9510
v  18.5025 19.6551 39.4197
v  19.9479 19.6737 39.0201
v  24.2055 21.0608 21.1760
v  23.1339 20.3803 31.7178
v  22.2012 19.9319 36.1842
v  21.5212 19.8007 37.7367
v  24.7353 21.2536 15.3206
v  20.8506 19.7393 38.4703
v  23.6025 21.4009 13.7461
v  24.2310 21.3600 13.9478
v  22.0556 21.4869 13.8396
v  19.6450 21.5760 14.4166
v  13.6317 21.6922 15.0435
v  24.6004 21.3068 14.4631
v  8.5307 21.7568 15.3756
v  8.5307 21.6842 15.2255
v  -2.5747 21.5824 16.4759
v  -5.0200 21.5674 13.9957
v  -6.5430 21.4864 13.8690
v  -7.0230 21.4472 14.0619
v  -1.2101 20.5476 34.7798
v  -0.4624 21.1158 33.7352
v  -1.4697 20.6887 33.0552
v  -0.7909 21.2799 31.9020
v  -3.8326 20.5895 31.7265
v  -3.6211 20.3461 34.9264
v  -3.4577 21.5088 17.3501
v  -0.4258 21.5955 18.6554
v  0.0501 21.5957 17.9263
v  0.2997 21.9984 19.5268
v  0.6822 21.5957 17.9272
v  1.9724 20.6807 33.2354
v  0.9408 21.1188 33.6675
v  1.6770 20.5528 34.6624
v  1.2935 21.2733 32.0493
v  4.1906 20.1517 38.4588
v  1.1027 20.4582 35.7648
v  0.2679 21.0359 34.4879
v  0.2206 21.5285 31.9735
v  0.7756 22.0034 20.1642
v  0.3159 22.0343 25.1131
v  1.2063 21.7834 25.0927
v  3.4203 21.7665 15.1996
v  -1.4261 21.6286 16.0604
v  2.0927 21.6837 16.5221
v  -2.6084 21.6549 14.5660
v  -7.4034 21.4141 14.5662
v  -7.5494 21.3810 15.4129
v  -7.0274 21.1881 21.1714
v  -4.3784 21.2487 21.8474
v  -5.9320 20.4843 31.6831
v  -5.0795 20.0695 36.0043
v  -2.9108 20.2141 36.3092
v  -4.3878 19.9246 37.6373
v  -1.7724 20.1548 37.1979
v  -3.7085 19.8771 38.3703
v  -2.8117 19.8277 38.9069
v  -1.4261 19.8154 39.2779
v  -0.6287 20.0887 37.8460
v  4.1382 19.8154 39.7214
v  -0.6448 20.4560 35.8130
v  0.2787 20.3996 36.2166
v  -1.1842 21.3220 24.7819
v  -0.6179 21.7815 25.1345
v  -0.1587 22.0052 20.1232
v  1.1172 21.5933 18.7056
v  1.8283 21.3243 24.7308
v  4.3527 20.6859 33.6098
v  4.2393 21.3179 24.8178
v  2.9069 21.5789 18.0718
v  4.1543 19.6792 39.8424
v  -1.4411 19.6551 39.4197
v  -2.8865 19.6737 39.0201
v  -7.1442 21.0608 21.1760
v  -6.0726 20.3803 31.7178
v  -5.1398 19.9319 36.1842
v  -4.4599 19.8007 37.7367
v  -7.6739 21.2536 15.3207
v  -3.7892 19.7393 38.4704
v  -6.5411 21.4009 13.7461
v  -7.1697 21.3600 13.9479
v  -4.9942 21.4869 13.8396
v  -2.5837 21.5760 14.4166
v  3.4296 21.6922 15.0435
v  -7.5390 21.3068 14.4631
# 147 vertices

vn 0.0390 0.9986 0.0345
vn 0.0592 0.9968 0.0534
vn 0.0538 0.9974 0.0482
vn 0.0519 0.9978 0.0403
vn 0.3687 0.9015 0.2265
vn 0.5050 0.8529 0.1325
vn 0.2759 0.9408 0.1970
vn 0.4403 0.8940 0.0825
vn 0.0836 0.9927 0.0871
vn 0.0802 0.9911 0.1063
vn 0.0745 0.9940 0.0799
vn 0.0476 0.9981 0.0386
vn 0.0385 0.9987 0.0326
vn 0.0985 0.9679 -0.2313
vn -0.1046 0.9689 -0.2240
vn 0.0012 0.9867 -0.1623
vn -0.4806 0.8637 0.1521
vn -0.3765 0.8970 0.2317
vn -0.2742 0.9400 0.2029
vn -0.4215 0.9020 0.0941
vn 0.0113 0.9840 0.1776
vn 0.0051 0.9921 0.1250
vn 0.0006 0.9949 0.1011
vn -0.0157 0.9579 0.2865
vn 0.0066 0.9938 0.1111
vn -0.3429 0.9383 -0.0447
vn -0.4517 0.8916 0.0326
vn -0.0028 0.9990 0.0446
vn 0.0228 0.9992 0.0321
vn 0.0058 0.9983 0.0580
vn 0.0090 0.9988 0.0475
vn 0.0349 0.9987 0.0384
vn 0.0454 0.9984 0.0352
vn 0.0471 0.9984 0.0324
vn 0.0448 0.9976 0.0532
vn 0.0531 0.9971 0.0541
vn 0.0600 0.9948 0.0826
vn 0.0818 0.9897 0.1176
vn 0.0727 0.9887 0.1314
vn 0.0786 0.9882 0.1315
vn 0.0496 0.9862 0.1578
vn 0.0401 0.9856 0.1645
vn 0.0584 0.9876 0.1457
vn 0.0331 0.9823 0.1845
vn 0.0307 0.9830 0.1813
vn 0.0148 0.9723 0.2333
vn 0.0000 0.9672 0.2541
vn 0.0000 0.9831 0.1833
vn 0.0539 0.9857 0.1600
vn 0.0281 0.9863 0.1628
vn 0.1881 0.9348 0.3012
vn -0.0112 0.9489 0.3152
vn -0.2141 0.9302 0.2981
vn 0.0753 0.9895 0.1232
vn 0.6593 0.7518 -0.0100
vn 0.4663 0.8842 0.0268
vn 0.0766 0.9951 0.0630
vn 0.3657 0.9293 -0.0514
vn 0.3463 0.9208 -0.1792
vn 0.0165 0.9995 0.0287
vn 0.0077 0.9992 0.0400
vn -0.3446 0.9249 -0.1605
vn -0.6257 0.7800 -0.0002
vn 0.0076 0.9961 0.0884
vn -0.0003 0.9985 0.0554
vn 0.0054 0.9959 0.0906
vn -0.0022 0.9984 0.0557
vn -0.0000 0.9958 0.0916
vn -0.0000 0.9985 0.0545
vn -0.0000 0.9986 0.0526
vn -0.0042 0.9988 0.0496
vn 0.0000 0.9978 0.0669
vn -0.0075 0.9991 0.0416
vn 0.0340 0.6887 0.7243
vn 0.0000 0.7107 0.7035
vn 0.0376 0.6850 0.7276
vn 0.1243 0.6579 0.7427
vn 0.1283 0.6576 0.7423
vn 0.2694 0.6611 0.7002
vn 0.2789 0.6621 0.6955
vn 0.6554 0.7387 0.1573
vn 0.6973 0.7094 0.1029
vn 0.6972 0.7095 0.1030
vn 0.6555 0.7371 0.1641
vn 0.6483 0.6973 0.3057
vn 0.6539 0.7176 0.2397
vn 0.5645 0.6928 0.4488
vn 0.5914 0.6921 0.4137
vn 0.6784 0.7346 -0.0110
vn 0.7050 0.7085 0.0311
vn 0.4338 0.6825 0.5882
vn 0.4294 0.6819 0.5922
vn 0.1150 0.8591 -0.4987
vn 0.3165 0.8700 -0.3780
vn 0.3513 0.8748 -0.3337
vn 0.1274 0.8585 -0.4968
vn -0.0329 0.8754 -0.4824
vn -0.0323 0.8751 -0.4828
vn -0.0525 0.8922 -0.4486
vn -0.0521 0.8922 -0.4486
vn -0.0231 0.8983 -0.4387
vn -0.0233 0.8983 -0.4388
vn 0.5224 0.8368 -0.1641
vn 0.5477 0.8241 -0.1445
vn 0.0712 0.9884 0.1344
vn -0.0000 0.9978 0.0658
vn -0.0000 0.9017 -0.4323
vn -0.0390 0.9986 0.0345
vn -0.0538 0.9974 0.0482
vn -0.0592 0.9968 0.0534
vn -0.0519 0.9978 0.0403
vn -0.3687 0.9015 0.2265
vn -0.2759 0.9408 0.1970
vn -0.5050 0.8529 0.1325
vn -0.4404 0.8940 0.0825
vn -0.0836 0.9927 0.0871
vn -0.0745 0.9940 0.0799
vn -0.0802 0.9911 0.1063
vn -0.0476 0.9981 0.0386
vn -0.0385 0.9987 0.0326
vn -0.0985 0.9679 -0.2313
vn -0.0012 0.9867 -0.1623
vn 0.1046 0.9690 -0.2240
vn 0.4806 0.8637 0.1521
vn 0.2742 0.9400 0.2029
vn 0.3765 0.8970 0.2317
vn 0.4215 0.9020 0.0941
vn -0.0113 0.9840 0.1776
vn -0.0006 0.9949 0.1011
vn -0.0051 0.9921 0.1250
vn 0.0157 0.9579 0.2865
vn -0.0066 0.9938 0.1111
vn 0.3429 0.9383 -0.0447
vn 0.0028 0.9990 0.0446
vn 0.4517 0.8916 0.0326
vn -0.0058 0.9983 0.0580
vn -0.0228 0.9992 0.0320
vn -0.0090 0.9988 0.0475
vn -0.0349 0.9987 0.0384
vn -0.0471 0.9984 0.0324
vn -0.0454 0.9984 0.0352
vn -0.0448 0.9976 0.0532
vn -0.0531 0.9971 0.0541
vn -0.0600 0.9948 0.0826
vn -0.0818 0.9897 0.1176
vn -0.0712 0.9884 0.1344
vn -0.0786 0.9882 0.1315
vn -0.0496 0.9862 0.1578
vn -0.0584 0.9876 0.1457
vn -0.0401 0.9856 0.1645
vn -0.0331 0.9823 0.1845
vn -0.0307 0.9830 0.1813
vn -0.0148 0.9723 0.2333
vn -0.0539 0.9857 0.1600
vn -0.0281 0.9863 0.1628
vn -0.1881 0.9348 0.3012
vn 0.0112 0.9489 0.3152
vn 0.2141 0.9302 0.2981
vn -0.0727 0.9887 0.1314
vn -0.0753 0.9895 0.1232
vn -0.6593 0.7518 -0.0100
vn -0.4663 0.8842 0.0268
vn -0.0766 0.9951 0.0630
vn -0.3657 0.9293 -0.0514
vn -0.3463 0.9208 -0.1792
vn -0.0165 0.9995 0.0287
vn -0.0077 0.9992 0.0400
vn 0.3446 0.9249 -0.1605
vn 0.6257 0.7800 -0.0002
vn -0.0054 0.9959 0.0906
vn 0.0003 0.9985 0.0554
vn -0.0076 0.9961 0.0884
vn 0.0022 0.9984 0.0557
vn 0.0042 0.9988 0.0496
vn 0.0075 0.9991 0.0416
vn -0.0340 0.6887 0.7243
vn -0.0376 0.6850 0.7276
vn -0.1283 0.6576 0.7424
vn -0.1243 0.6579 0.7427
vn -0.2789 0.6621 0.6955
vn -0.2694 0.6612 0.7002
vn -0.6973 0.7093 0.1029
vn -0.6554 0.7387 0.1573
vn -0.6972 0.7094 0.1030
vn -0.6556 0.7371 0.1641
vn -0.6483 0.6973 0.3057
vn -0.6539 0.7176 0.2397
vn -0.5644 0.6928 0.4488
vn -0.5914 0.6922 0.4137
vn -0.7050 0.7085 0.0311
vn -0.6785 0.7345 -0.0111
vn -0.4338 0.6825 0.5882
vn -0.4294 0.6819 0.5922
vn -0.1150 0.8591 -0.4987
vn -0.3165 0.8700 -0.3781
vn -0.1274 0.8585 -0.4968
vn -0.3513 0.8747 -0.3338
vn 0.0329 0.8754 -0.4823
vn 0.0323 0.8752 -0.4828
vn 0.0521 0.8923 -0.4485
vn 0.0525 0.8922 -0.4486
vn 0.0231 0.8983 -0.4387
vn 0.0233 0.8983 -0.4388
vn -0.5478 0.8241 -0.1445
vn -0.5224 0.8368 -0.1641
# 205 vertex normals

vt -16.8498 -0.7305 0.0000
vt -12.5906 -7.2140 0.0000
vt -12.7976 -4.7256 0.0000
vt -13.1365 -8.3817 0.0000
vt -46.7546 1.4989 0.0000
vt -43.9370 1.0747 0.0000
vt -45.0479 2.7204 0.0000
vt -42.0528 2.1838 0.0000
vt -46.9940 -2.4402 0.0000
vt -41.7661 -2.7858 0.0000
vt -18.2781 -2.1732 0.0000
vt -20.4106 2.7802 0.0000
vt -19.2194 3.5578 0.0000
vt -19.2209 4.5905 0.0000
vt -21.8343 3.9656 0.0000
vt -44.2314 6.6985 0.0000
vt -46.5629 6.2157 0.0000
vt -44.9373 5.0129 0.0000
vt -42.2936 5.5893 0.0000
vt -52.7653 10.3226 0.0000
vt -48.3639 5.2776 0.0000
vt -46.2776 3.9136 0.0000
vt -42.1696 3.8363 0.0000
vt -22.8758 4.7432 0.0000
vt -30.9279 5.4467 0.0000
vt -30.9612 3.9921 0.0000
vt -16.1710 1.1460 0.0000
vt -14.7646 9.0640 0.0000
vt -16.9253 6.8950 0.0000
vt -13.7294 -0.7857 0.0000
vt -15.1130 -8.8582 0.0000
vt -14.1247 -8.6200 0.0000
vt -24.5212 -8.0054 0.0000
vt -25.6257 -3.6775 0.0000
vt -41.6952 -6.2158 0.0000
vt -48.7551 -4.8229 0.0000
vt -49.2533 -1.2798 0.0000
vt -51.4232 -3.6928 0.0000
vt -50.7054 0.5801 0.0000
vt -53.1619 -1.4201 0.0000
vt -52.2561 -2.6040 0.0000
vt -54.1037 1.1459 0.0000
vt -51.7641 2.4488 0.0000
vt -54.8281 10.2368 0.0000
vt -54.9275 17.4133 0.0000
vt -52.7594 17.4133 0.0000
vt -48.4427 2.4225 0.0000
vt -49.1020 3.9312 0.0000
vt -30.4201 1.5412 0.0000
vt -30.9962 2.4664 0.0000
vt -22.8087 3.2166 0.0000
vt -20.4927 5.3011 0.0000
vt -30.3365 6.4630 0.0000
vt -30.4787 10.4021 0.0000
vt -44.8431 10.5873 0.0000
vt -45.1157 17.4133 0.0000
vt -30.7081 17.4133 0.0000
vt -19.7330 17.4133 0.0000
vt -19.4572 8.2253 0.0000
vt -17.1933 17.4133 0.0000
vt -52.4372 10.2238 0.0000
vt -52.0628 16.8924 0.0000
vt -50.6998 1.6387 0.0000
vt -49.9338 -0.7999 0.0000
vt -20.3906 -6.6390 0.0000
vt -38.3700 -5.5267 0.0000
vt -46.2653 -4.5696 0.0000
vt -48.7207 -3.5453 0.0000
vt -12.2668 -7.1782 0.0000
vt -49.2962 -2.2429 0.0000
vt -12.3899 -7.2109 0.0000
vt -12.8426 -8.4151 0.0000
vt -12.5427 -4.6836 0.0000
vt -13.4853 -0.7452 0.0000
vt -14.5096 9.0792 0.0000
vt -12.5547 -7.7967 0.0000
vt -15.0521 17.4133 0.0000
vt -14.8069 17.4133 0.0000
# 78 texture coords

o Hood
g Hood
usemtl Material__73
s off
f 1/1/1 2/2/2 3/3/3 
f 1/1/1 4/4/4 2/2/2 
f 5/5/5 6/6/6 7/7/7 
f 8/8/8 7/7/7 6/6/6 
f 6/6/9 9/9/10 10/10/11 
f 11/11/12 1/1/1 12/12/13 
f 13/13/14 14/14/15 15/15/16 
f 16/16/17 17/17/18 18/18/19 
f 16/16/17 18/18/19 19/19/20 
f 20/20/21 21/21/22 17/17/23 
f 22/22/24 7/7/7 23/23/25 
f 22/22/24 23/23/25 18/18/19 
f 24/24/26 25/25/27 26/26/28 
f 27/27/29 28/28/30 29/29/31 
f 28/28/30 27/27/29 30/30/32 
f 1/1/1 30/30/32 27/27/29 
f 30/30/32 1/1/1 3/3/3 
f 11/11/12 31/31/33 32/32/34 
f 33/33/35 31/31/33 11/11/12 
f 33/33/35 11/11/12 34/34/36 
f 35/35/37 34/34/36 10/10/11 
f 34/34/36 35/35/37 33/33/35 
f 9/9/10 35/35/37 10/10/11 
f 35/35/37 9/9/10 36/36/38 
f 37/37/39 36/36/38 9/9/10 
f 36/36/38 37/37/39 38/38/40 
f 39/39/41 40/40/42 41/41/43 
f 40/40/42 39/39/41 42/42/44 
f 39/39/41 43/43/45 42/42/44 
f 44/44/46 42/42/44 43/43/45 
f 44/44/46 43/43/45 20/20/21 
f 45/45/47 44/44/46 20/20/21 
f 45/45/47 20/20/21 46/46/48 
f 47/47/49 43/43/45 39/39/41 
f 43/43/45 47/47/49 48/48/50 
f 47/47/51 22/22/24 48/48/52 
f 22/22/24 47/47/51 7/7/7 
f 21/21/53 22/22/24 18/18/19 
f 22/22/24 21/21/53 48/48/52 
f 20/20/21 48/48/50 21/21/22 
f 20/20/21 43/43/45 48/48/50 
f 47/47/51 5/5/5 7/7/7 
f 37/37/39 47/47/49 39/39/41 
f 47/47/49 37/37/39 5/5/54 
f 5/5/54 9/9/10 6/6/9 
f 9/9/10 5/5/54 37/37/39 
f 49/49/55 8/8/8 6/6/6 
f 8/8/8 49/49/55 50/50/56 
f 49/49/57 6/6/9 10/10/11 
f 10/10/11 34/34/36 49/49/57 
f 34/34/36 11/11/12 12/12/13 
f 34/34/36 12/12/13 49/49/57 
f 51/51/58 50/50/56 49/49/55 
f 49/49/55 12/12/59 51/51/58 
f 12/12/13 27/27/29 13/13/60 
f 27/27/29 12/12/13 1/1/1 
f 13/13/14 15/15/16 12/12/59 
f 12/12/59 15/15/16 51/51/58 
f 29/29/31 13/13/60 27/27/29 
f 13/13/60 29/29/31 14/14/61 
f 52/52/62 15/15/16 14/14/15 
f 15/15/16 52/52/62 24/24/26 
f 53/53/63 24/24/26 52/52/62 
f 24/24/26 53/53/63 25/25/27 
f 16/16/64 54/54/65 55/55/66 
f 54/54/65 16/16/64 53/53/67 
f 53/53/63 16/16/17 19/19/20 
f 53/53/63 19/19/20 25/25/27 
f 55/55/66 20/20/21 17/17/23 
f 55/55/66 17/17/23 16/16/64 
f 17/17/18 21/21/53 18/18/19 
f 7/7/7 8/8/8 23/23/25 
f 26/26/28 23/23/25 8/8/8 
f 8/8/8 50/50/56 26/26/28 
f 51/51/58 15/15/16 26/26/28 
f 23/23/25 25/25/27 19/19/20 
f 25/25/27 23/23/25 26/26/28 
f 19/19/20 18/18/19 23/23/25 
f 20/20/21 56/56/68 46/46/48 
f 56/56/68 20/20/21 55/55/66 
f 57/57/69 56/56/68 55/55/66 
f 55/55/66 54/54/65 57/57/69 
f 57/57/69 54/54/65 58/58/70 
f 54/54/65 59/59/71 58/58/70 
f 29/29/31 60/60/72 59/59/71 
f 58/58/70 59/59/71 60/60/72 
f 53/53/67 59/59/71 54/54/65 
f 59/59/71 53/53/67 52/52/73 
f 59/59/71 14/14/61 29/29/31 
f 14/14/61 59/59/71 52/52/73 
f 26/26/28 50/50/56 51/51/58 
f 15/15/16 24/24/26 26/26/28 
f 61/61/74 45/45/75 62/62/75 
f 45/45/75 61/61/74 44/44/76 
f 61/61/74 63/63/77 44/44/76 
f 42/42/78 44/44/76 63/63/77 
f 40/40/79 42/42/78 63/63/77 
f 63/63/77 64/64/80 40/40/79 
f 35/35/81 65/65/82 33/33/83 
f 65/65/82 35/35/81 66/66/84 
f 67/67/85 66/66/84 36/36/86 
f 36/36/86 66/66/84 35/35/81 
f 68/68/87 67/67/85 38/38/88 
f 36/36/86 38/38/88 67/67/85 
f 65/65/82 69/69/89 31/31/90 
f 65/65/82 31/31/90 33/33/83 
f 41/41/91 64/64/80 70/70/92 
f 64/64/80 41/41/91 40/40/79 
f 71/71/93 4/4/94 72/72/95 
f 4/4/94 71/71/93 2/2/96 
f 71/71/93 3/3/97 2/2/96 
f 3/3/97 71/71/93 73/73/98 
f 3/3/97 74/74/99 30/30/100 
f 73/73/98 74/74/99 3/3/97 
f 74/74/99 28/28/101 30/30/100 
f 28/28/101 74/74/99 75/75/102 
f 76/76/103 72/72/95 4/4/94 
f 76/76/103 4/4/94 32/32/104 
f 69/69/89 76/76/103 32/32/104 
f 69/69/89 32/32/104 31/31/90 
f 11/11/12 32/32/34 4/4/4 
f 4/4/4 1/1/1 11/11/12 
f 41/41/91 68/68/87 38/38/88 
f 68/68/87 41/41/91 70/70/92 
f 41/41/43 38/38/40 37/37/105 
f 37/37/105 39/39/41 41/41/43 
f 28/28/30 60/60/72 29/29/31 
f 60/60/72 28/28/30 77/77/106 
f 75/75/102 78/78/107 28/28/101 
f 77/77/107 28/28/101 78/78/107 
f 79/1/108 80/3/109 81/2/110 
f 79/1/108 81/2/110 82/4/111 
f 83/5/112 84/7/113 85/6/114 
f 86/8/115 85/6/114 84/7/113 
f 85/6/116 87/10/117 88/9/118 
f 89/11/119 90/12/120 79/1/108 
f 91/13/121 92/15/122 93/14/123 
f 94/16/124 95/18/125 96/17/126 
f 94/16/124 97/19/127 95/18/125 
f 98/20/128 96/17/129 99/21/130 
f 100/22/131 101/23/132 84/7/113 
f 100/22/131 95/18/125 101/23/132 
f 102/24/133 103/26/134 104/25/135 
f 105/28/136 106/27/137 107/29/138 
f 106/27/137 105/28/136 108/30/139 
f 108/30/139 79/1/108 106/27/137 
f 79/1/108 108/30/139 80/3/109 
f 89/11/119 109/32/140 110/31/141 
f 111/33/142 89/11/119 110/31/141 
f 89/11/119 111/33/142 112/34/143 
f 87/10/117 112/34/143 113/35/144 
f 112/34/143 111/33/142 113/35/144 
f 88/9/118 113/35/144 114/36/145 
f 113/35/144 88/9/118 87/10/117 
f 114/36/145 115/37/146 88/9/118 
f 115/37/146 114/36/145 116/38/147 
f 117/39/148 118/41/149 119/40/150 
f 119/40/150 120/42/151 117/39/148 
f 117/39/148 120/42/151 121/43/152 
f 120/42/151 122/44/153 121/43/152 
f 121/43/152 122/44/153 98/20/128 
f 45/45/47 98/20/128 122/44/153 
f 98/20/128 45/45/47 46/46/48 
f 123/47/154 117/39/148 121/43/152 
f 123/47/154 121/43/152 124/48/155 
f 123/47/156 100/22/131 84/7/113 
f 100/22/131 123/47/156 124/48/157 
f 99/21/158 100/22/131 124/48/157 
f 100/22/131 99/21/158 95/18/125 
f 121/43/152 98/20/128 124/48/155 
f 98/20/128 99/21/130 124/48/155 
f 123/47/156 84/7/113 83/5/112 
f 115/37/159 123/47/154 83/5/160 
f 123/47/154 115/37/159 117/39/148 
f 88/9/118 83/5/160 85/6/116 
f 83/5/160 88/9/118 115/37/159 
f 86/8/115 125/49/161 85/6/114 
f 125/49/161 86/8/115 126/50/162 
f 85/6/116 125/49/163 87/10/117 
f 112/34/143 87/10/117 125/49/163 
f 125/49/163 90/12/120 112/34/143 
f 89/11/119 112/34/143 90/12/120 
f 126/50/162 127/51/164 125/49/161 
f 90/12/165 125/49/161 127/51/164 
f 90/12/120 106/27/137 79/1/108 
f 106/27/137 90/12/120 91/13/166 
f 92/15/122 91/13/121 90/12/165 
f 90/12/165 127/51/164 92/15/122 
f 107/29/138 91/13/166 93/14/167 
f 91/13/166 107/29/138 106/27/137 
f 92/15/122 128/52/168 93/14/123 
f 128/52/168 92/15/122 102/24/133 
f 129/53/169 128/52/168 102/24/133 
f 129/53/169 102/24/133 104/25/135 
f 130/55/170 131/54/171 94/16/172 
f 94/16/172 131/54/171 129/53/173 
f 94/16/124 129/53/169 97/19/127 
f 97/19/127 129/53/169 104/25/135 
f 96/17/129 98/20/128 130/55/170 
f 96/17/129 130/55/170 94/16/172 
f 96/17/126 95/18/125 99/21/158 
f 84/7/113 101/23/132 86/8/115 
f 101/23/132 103/26/134 86/8/115 
f 86/8/115 103/26/134 126/50/162 
f 127/51/164 103/26/134 92/15/122 
f 97/19/127 104/25/135 101/23/132 
f 101/23/132 104/25/135 103/26/134 
f 97/19/127 101/23/132 95/18/125 
f 98/20/128 56/56/68 130/55/170 
f 56/56/68 98/20/128 46/46/48 
f 56/56/68 57/57/69 130/55/170 
f 130/55/170 57/57/69 131/54/171 
f 57/57/69 58/58/70 131/54/171 
f 131/54/171 58/58/70 132/59/174 
f 132/59/174 58/58/70 60/60/72 
f 132/59/174 60/60/72 107/29/138 
f 129/53/173 132/59/174 128/52/175 
f 132/59/174 129/53/173 131/54/171 
f 132/59/174 93/14/167 128/52/175 
f 93/14/167 132/59/174 107/29/138 
f 103/26/134 127/51/164 126/50/162 
f 92/15/122 103/26/134 102/24/133 
f 133/61/176 62/62/75 45/45/75 
f 133/61/176 45/45/75 122/44/177 
f 122/44/177 120/42/178 134/63/179 
f 122/44/177 134/63/179 133/61/176 
f 135/64/180 134/63/179 119/40/181 
f 120/42/178 119/40/181 134/63/179 
f 136/65/182 113/35/183 111/33/184 
f 113/35/183 136/65/182 137/66/185 
f 137/66/185 138/67/186 114/36/187 
f 137/66/185 114/36/187 113/35/183 
f 138/67/186 139/68/188 116/38/189 
f 116/38/189 114/36/187 138/67/186 
f 111/33/184 110/31/190 136/65/182 
f 136/65/182 110/31/190 140/69/191 
f 118/41/192 135/64/180 119/40/181 
f 135/64/180 118/41/192 141/70/193 
f 142/71/194 82/4/195 81/2/196 
f 82/4/195 142/71/194 143/72/197 
f 80/3/198 142/71/194 81/2/196 
f 142/71/194 80/3/198 144/73/199 
f 80/3/198 108/30/200 145/74/201 
f 80/3/198 145/74/201 144/73/199 
f 105/28/202 145/74/201 108/30/200 
f 145/74/201 105/28/202 146/75/203 
f 109/32/204 82/4/195 147/76/205 
f 143/72/197 147/76/205 82/4/195 
f 110/31/190 109/32/204 140/69/191 
f 140/69/191 109/32/204 147/76/205 
f 109/32/140 89/11/119 82/4/111 
f 82/4/111 89/11/119 79/1/108 
f 139/68/188 118/41/192 116/38/189 
f 118/41/192 139/68/188 141/70/193 
f 118/41/149 115/37/146 116/38/147 
f 118/41/149 117/39/148 115/37/146 
f 117/39/148 115/37/159 115/37/146 
f 77/77/106 105/28/136 60/60/72 
f 107/29/138 60/60/72 105/28/136 
f 105/28/202 77/77/107 78/78/107 
f 105/28/202 78/78/107 146/75/203 
# 261 faces

